HIERARCHY
ROOT Hips
{
	OFFSET 0.000000 0.000000 0.000000 
	CHANNELS 6 Xposition Yposition Zposition Zrotation Yrotation Xrotation
	JOINT LeftUpLeg
	{
		OFFSET 1.363060 -1.794630 0.839290 
		CHANNELS 3 Zrotation Yrotation Xrotation
		JOINT LeftLeg
		{
			OFFSET 2.448110 -6.726130 0.000000 
			CHANNELS 3 Zrotation Yrotation Xrotation
			JOINT LeftFoot
			{
				OFFSET 2.562200 -7.039590 0.000000 
				CHANNELS 3 Zrotation Yrotation Xrotation
				JOINT LeftToeBase
				{
					OFFSET 0.157640 -0.433110 2.322550 
					CHANNELS 3 Zrotation Yrotation Xrotation
					End Site
					{
						OFFSET 0.000000 0.000000 0.000000 
					}
				}
			}
		}
	}
	JOINT RightUpLeg
	{
		OFFSET -1.305520 -1.794630 0.839290 
		CHANNELS 3 Zrotation Yrotation Xrotation
		JOINT RightLeg
		{
			OFFSET -2.542530 -6.985550 0.000000 
			CHANNELS 3 Zrotation Yrotation Xrotation
			JOINT RightFoot
			{
				OFFSET -2.568260 -7.056230 0.000000 
				CHANNELS 3 Zrotation Yrotation Xrotation
				JOINT RightToeBase
				{
					OFFSET -0.164730 -0.452590 2.363150 
					CHANNELS 3 Zrotation Yrotation Xrotation
					End Site
					{
						OFFSET 0.000000 0.000000 0.000000 
					}
				}
			}
		}
	}
	JOINT Spine
	{
		OFFSET 0.028270 2.035590 -0.193380 
		CHANNELS 3 Zrotation Yrotation Xrotation
		JOINT Spine1
		{
			OFFSET 0.056720 2.048850 -0.042750 
			CHANNELS 3 Zrotation Yrotation Xrotation
			JOINT Neck1
			{
				OFFSET -0.054170 1.746240 0.172020 
				CHANNELS 3 Zrotation Yrotation Xrotation
				JOINT Head
				{
					OFFSET 0.104070 1.761360 -0.123970 
					CHANNELS 3 Zrotation Yrotation Xrotation
					End Site
					{
						OFFSET 0.000000 0.000000 0.000000 
					}
				}
			}
			JOINT LeftArm
			{
				OFFSET 3.362410 1.200890 -0.311210 
				CHANNELS 3 Zrotation Yrotation Xrotation
				JOINT LeftForeArm
				{
					OFFSET 4.983000 -0.000000 -0.000000 
					CHANNELS 3 Zrotation Yrotation Xrotation
					JOINT LeftHand
					{
						OFFSET 3.483560 -0.000000 -0.000000 
						CHANNELS 3 Zrotation Yrotation Xrotation
						JOINT LeftHandIndex1
						{
							OFFSET 0.715260 -0.000000 -0.000000 
							CHANNELS 3 Zrotation Yrotation Xrotation
							End Site
							{
								OFFSET 0.000000 0.000000 0.000000 
							}
						}
					}
				}
			}
			JOINT RightArm
			{
				OFFSET -3.136600 1.374050 -0.404650 
				CHANNELS 3 Zrotation Yrotation Xrotation
				JOINT RightForeArm
				{
					OFFSET -5.241900 -0.000000 -0.000000 
					CHANNELS 3 Zrotation Yrotation Xrotation
					JOINT RightHand
					{
						OFFSET -3.444170 -0.000000 -0.000000 
						CHANNELS 3 Zrotation Yrotation Xrotation
						JOINT RightHandIndex1
						{
							OFFSET -0.622530 -0.000000 -0.000000 
							CHANNELS 3 Zrotation Yrotation Xrotation
							End Site
							{
								OFFSET 0.000000 0.000000 0.000000 
							}
						}
					}
				}
			}
		}
	}
}
MOTION
Frames: 13
Frame Time: 0.041667
8.966286 17.823046 25.575981 -178.351159 3.191776 -167.516069 -21.231200 -13.111595 -8.564008 0.310068 4.683961 14.188298 0.838509 -1.883989 -16.246682 8.300600 -16.335900 -53.638200 33.273466 5.647917 -7.032870 0.035051 -2.606051 11.131976 -0.801745 2.683555 -15.165921 -0.011400 -0.689900 1.896000 0.418470 3.436816 -5.423209 1.545039 1.790721 2.488563 8.387611 -2.320208 24.060193 2.823800 -1.317600 10.063200 -91.935235 -3.025627 25.369291 7.368289 -16.437825 -1.901198 0.310598 1.147722 24.762627 -7.125000 0.000000 0.000000 87.326692 -7.319010 -3.499217 -9.740345 28.506167 -5.055252 0.015884 -2.715652 13.959019 7.125000 0.000000 0.000000 
8.967786 17.822511 25.576409 -178.497123 3.155527 -167.582493 -21.435188 -13.147150 -8.394478 0.294790 4.628851 14.051696 0.832062 -1.755652 -16.213814 8.400900 -16.406400 -53.994300 33.100914 5.605854 -6.958139 0.049098 -2.580255 11.075460 -0.814382 2.320289 -15.297734 -0.038300 1.262600 -3.471500 0.390883 3.433437 -5.423998 1.472847 1.781962 2.492413 8.653644 -2.296205 24.070854 2.932100 -1.284300 10.075100 -91.803506 -3.155664 25.843230 7.342018 -16.410001 -1.894303 0.313601 1.149265 25.126444 -7.125000 0.000000 0.000000 87.606173 -7.150074 -3.937504 -9.443053 28.167796 -4.930910 -0.071495 -2.712888 13.830636 7.125000 0.000000 0.000000 
8.969072 17.821546 25.578874 -178.473184 3.137758 -167.601749 -21.401765 -13.129835 -8.290763 0.280641 4.570837 13.899666 0.829332 -1.739906 -16.186502 8.415500 -16.416500 -54.045900 33.158378 5.724212 -6.912733 0.061214 -2.586786 11.087871 -0.825811 2.042024 -15.423198 -0.221300 3.028400 -8.357800 0.366835 3.502804 -5.425606 1.354796 1.813092 2.501661 8.780068 -2.421930 24.109290 2.953500 -1.325500 10.093500 -91.602180 -3.135609 26.611970 7.490492 -16.610937 -1.923561 0.306459 1.153138 25.395626 -7.125000 0.000000 0.000000 87.915754 -7.082702 -4.407752 -9.338189 28.058567 -4.913905 -0.130436 -2.734052 14.036817 7.125000 0.000000 0.000000 
8.969930 17.821332 25.581125 -178.482564 3.170777 -167.622049 -21.404966 -13.084161 -8.175347 0.263374 4.501491 13.716715 0.823816 -1.701632 -16.138647 8.434200 -16.429500 -54.112100 33.167311 5.821675 -6.901406 0.061701 -2.607298 11.140677 -0.829057 1.921010 -15.464733 -0.728800 5.454400 -15.209400 0.371122 3.514324 -5.422421 1.370958 1.817154 2.532319 8.855447 -2.406561 24.124756 2.982500 -1.308800 10.112100 -91.520482 -3.184084 26.958916 7.548329 -16.692090 -1.936454 0.308297 1.154093 25.702654 -7.125000 0.000000 0.000000 88.043980 -7.080234 -4.561793 -9.346575 28.021767 -4.858838 -0.149564 -2.700807 14.382815 7.125000 0.000000 0.000000 
8.972180 17.821546 25.585626 -178.567541 3.213219 -167.693217 -21.498814 -13.036249 -8.041892 0.250085 4.444391 13.571307 0.817812 -1.666099 -16.085113 8.416800 -16.417400 -54.050400 33.076335 5.962193 -6.829395 0.049445 -2.613608 11.171395 -0.820917 2.111914 -15.371673 -1.524600 7.796300 -22.097100 0.378885 3.489038 -5.432812 1.444132 1.807160 2.471371 8.971545 -2.290169 24.071152 3.046600 -1.248200 10.090100 -91.452468 -3.301970 26.851754 7.403892 -16.508889 -1.912011 0.328370 1.153219 26.131612 -7.125000 0.000000 0.000000 88.107586 -7.128360 -4.942663 -9.296694 27.981190 -4.921317 -0.131347 -2.760719 14.971741 7.125000 0.000000 0.000000 
8.973680 17.820153 25.589484 -178.589176 3.275465 -167.785878 -21.523371 -12.904938 -7.893120 0.236316 4.380029 13.410327 0.810303 -1.633594 -16.013937 8.391300 -16.399600 -53.960200 33.069158 6.177518 -6.685109 0.053944 -2.612533 11.180928 -0.832869 2.023626 -15.479371 -0.804900 5.725700 -15.990700 0.369611 3.522537 -5.448591 1.414039 1.827766 2.371819 9.018402 -2.270414 24.077380 3.048700 -1.229900 10.089100 -91.286251 -3.378238 26.555782 7.174719 -16.214592 -1.872758 0.356230 1.151188 26.672082 -7.125000 0.000000 0.000000 88.289747 -7.239238 -5.419297 -9.220627 27.869259 -4.898865 -0.133699 -2.777638 15.631893 7.125000 0.000000 0.000000 
8.971966 17.819188 25.589269 -178.544779 3.371770 -167.845858 -21.483249 -12.725700 -7.732293 0.216873 4.293485 13.187039 0.802634 -1.596174 -15.942185 8.400600 -16.406100 -53.993200 33.134861 6.269697 -6.599444 0.058054 -2.619163 11.205243 -0.840554 1.933368 -15.552967 -0.837100 5.836300 -16.310100 0.376087 3.541304 -5.440312 1.397385 1.834810 2.407370 8.964785 -2.226309 24.124947 3.005200 -1.201500 10.110900 -91.141029 -3.448452 26.263852 7.048087 -16.053384 -1.852838 0.375069 1.148586 27.072507 -7.125000 0.000000 0.000000 88.384180 -7.282347 -5.537388 -8.992631 27.609294 -4.781531 -0.163091 -2.759582 15.303183 7.125000 0.000000 0.000000 
8.968429 17.819081 25.588519 -178.443824 3.435851 -167.861661 -21.386388 -12.648422 -7.597723 0.200387 4.226541 13.010857 0.800324 -1.549091 -15.927873 8.392600 -16.400600 -53.964900 33.254943 6.272227 -6.588391 0.057447 -2.630630 11.234022 -0.838556 1.961113 -15.532625 -0.857800 5.906400 -16.513000 0.394939 3.534331 -5.417803 1.381997 1.825231 2.519841 8.885044 -2.157987 24.133003 2.955100 -1.156800 10.132900 -90.943172 -3.478563 26.400373 7.118908 -16.149782 -1.869535 0.374873 1.150568 26.940013 -7.125000 0.000000 0.000000 88.428386 -7.234285 -5.647526 -8.820427 27.413525 -4.705986 -0.181961 -2.751451 15.235953 7.125000 0.000000 0.000000 
8.966072 17.818010 25.589055 -178.401179 3.495491 -167.874786 -21.350330 -12.563206 -7.477488 0.182905 4.156202 12.825761 0.792281 -1.460963 -15.870105 8.398000 -16.404300 -53.984000 33.300582 6.335918 -6.592839 0.053463 -2.649616 11.282510 -0.838231 1.995952 -15.528469 -0.839200 5.843700 -16.331600 0.399591 3.538428 -5.414026 1.363661 1.824013 2.549667 8.852211 -2.165270 24.106788 2.925300 -1.148100 10.144700 -90.677033 -3.450214 26.705583 7.198027 -16.255139 -1.882206 0.361542 1.155338 26.611728 -7.125000 0.000000 0.000000 88.490716 -7.184628 -5.974024 -8.806434 27.406548 -4.765676 -0.178028 -2.797489 16.090923 7.125000 0.000000 0.000000 
8.965857 17.816938 25.591306 -178.399450 3.597097 -167.902138 -21.327127 -12.412487 -7.365877 0.162683 4.066425 12.588583 0.781970 -1.416680 -15.775594 8.368400 -16.383600 -53.878900 33.308379 6.503316 -6.613987 0.042303 -2.703564 11.423355 -0.846330 2.015475 -15.600356 -0.775600 5.622900 -15.694200 0.410634 3.541681 -5.424057 1.416550 1.830463 2.500902 8.883507 -2.186368 24.014959 2.944600 -1.164700 10.082300 -90.493078 -3.494787 26.494530 7.090099 -16.112967 -1.853186 0.354482 1.155261 26.784696 -7.125000 0.000000 0.000000 88.469037 -7.174055 -6.468733 -8.278876 26.793916 -4.608102 -0.284388 -2.778939 15.898116 7.125000 0.000000 0.000000 
8.965107 17.816616 25.593342 -178.323658 3.700213 -167.933255 -21.213906 -12.230892 -7.236090 0.139888 3.964920 12.319510 0.773160 -1.371206 -15.695743 8.357400 -16.375900 -53.840000 33.407574 6.650537 -6.627314 0.032396 -2.762870 11.577704 -0.854624 2.028534 -15.674767 -0.721000 5.425700 -15.126900 0.427442 3.545362 -5.421642 1.454854 1.836063 2.495897 8.894143 -2.170612 23.969627 2.958800 -1.165900 10.040600 -90.326966 -3.607351 25.907761 6.914151 -15.875982 -1.813536 0.360747 1.151455 27.243189 -7.125000 0.000000 0.000000 88.459924 -7.274191 -5.933752 -8.261566 26.879092 -4.646155 -0.355962 -2.787918 14.380867 7.125000 0.000000 0.000000 
8.962321 17.816188 25.592377 -178.262355 3.815187 -168.002199 -21.172240 -12.167215 -7.158292 0.140151 3.975363 12.353781 0.780601 -1.302658 -15.789952 8.403300 -16.408000 -54.002700 33.487529 6.681099 -6.547792 0.030622 -2.770180 11.608449 -0.851278 2.041722 -15.641044 -0.731800 5.465400 -15.240800 0.439173 3.554803 -5.398852 1.473347 1.836291 2.560589 8.915338 -2.107625 23.983721 2.979400 -1.137200 10.048800 -90.156776 -3.741052 25.180326 6.716657 -15.610959 -1.777235 0.373645 1.149274 27.859544 -7.125000 0.000000 0.000000 88.409994 -7.152039 -6.982209 -8.095949 26.556923 -4.604923 -0.300210 -2.809532 16.477784 7.125000 0.000000 0.000000 
8.958784 17.815759 25.590663 -178.254503 3.945388 -168.048037 -21.220523 -12.339330 -7.291316 0.179628 4.166782 12.868775 0.817153 -1.307841 -16.158626 8.397800 -16.404200 -53.983000 33.502299 6.740037 -6.480527 0.028007 -2.774125 11.628463 -0.849978 2.071775 -15.622913 -0.760500 5.569400 -15.540100 0.457582 3.554544 -5.377638 1.550512 1.835307 2.624062 8.958694 -1.995441 23.931463 3.023400 -1.091000 10.009200 -90.033510 -3.875641 24.380428 6.510107 -15.334965 -1.738881 0.385116 1.146155 28.499445 -7.125000 0.000000 0.000000 88.343844 -7.117885 -7.167841 -7.677412 26.018005 -4.376593 -0.278389 -2.767337 15.807577 7.125000 0.000000 0.000000 
